<?xml version="1.0" encoding="utf-8"?>
<!-- Generator: Adobe Illustrator 23.0.0, SVG Export Plug-In . SVG Version: 6.00 Build 0)  -->
<svg version="1.1" id="레이어_1" xmlns="http://www.w3.org/2000/svg" xmlns:xlink="http://www.w3.org/1999/xlink" x="0px"
	 y="0px" viewBox="0 0 180 180" style="enable-background:new 0 0 180 180;" xml:space="preserve">
<style type="text/css">
	.st0{fill:#222222;}
</style>
<g>
	<path class="st0" d="M171.4,0h-29.2c-2,0-3.7,1.6-3.7,3.7v20.2V24v21.7c-5.4,0.8-9.6,3.3-11.3,6.6H99.3c-1.8-3-5.7-5-10.3-5
		c-6.3,0-11.3,3.8-11.3,8.7s5,8.7,11.3,8.7c4.6,0,8.5-2,10.3-5h27.9c2.2,4.1,7.9,6.9,15,6.9c9.2,0,16.1-4.6,16-10.5
		c0-3-1.7-5.7-4.8-7.7c-1.7-1.1-4-0.6-5.1,1.1c-0.5,0.8-0.7,1.8-0.5,2.8c0.2,0.9,0.8,1.8,1.6,2.3c1.1,0.6,1.4,1.2,1.4,1.4
		s-0.4,0.9-1.7,1.6c-1.8,0.9-4.3,1.5-6.9,1.5c-5.5,0-8.6-2.4-8.6-3.2c0-0.2,0.4-0.9,1.7-1.6c0.9-0.5,2-0.8,3.2-1.1v0.4
		c0,2,1.6,3.7,3.7,3.7c2.1,0,3.7-1.7,3.7-3.8V27.7h25.5c2.1,0,3.7-1.7,3.7-3.8V3.7C175.1,1.7,173.5,0,171.4,0z M167.6,7.4v12.8
		h-21.7V7.4H167.6z M89,54.8c2.2,0,3.5,0.8,3.8,1.2c-0.3,0.3-1.6,1.2-3.8,1.2s-3.5-0.8-3.8-1.2C85.5,55.6,86.7,54.7,89,54.8z"/>
	<path class="st0" d="M97.1,164.4H36.5c-2.1-4.8-8.1-8.2-15.4-8.2c-9.1,0-16.2,5.2-16.2,11.9c0,6.7,7.1,11.9,16.2,11.9
		c7.3,0,13.4-3.4,15.4-8.2h60.6c2.1,0,3.7-1.7,3.7-3.7S99.2,164.4,97.1,164.4z M21.1,163.6c5.4,0,8.8,2.7,8.8,4.5
		c0,1.9-3.4,4.5-8.8,4.5c-5.4,0-8.8-2.7-8.8-4.5C12.3,166.2,15.7,163.6,21.1,163.6z"/>
	<path class="st0" d="M142.9,136.4H83.2c-2,0-3.7,1.6-3.7,3.7c0,2,1.6,3.7,3.7,3.7h59.7c5.6,0,10.2,4.6,10.2,10.2v0.2
		c0,5.6-4.6,10.2-10.2,10.2h-19.4c-1.8-3-5.7-5-10.3-5c-6.3,0-11.3,3.8-11.3,8.7c0,4.9,5,8.7,11.3,8.7c4.7,0,8.5-2,10.3-5h19.4
		c9.7,0,17.6-7.9,17.7-17.5v-0.2C160.6,144.3,152.6,136.4,142.9,136.4z M113.2,166.9c2.2,0,3.5,0.8,3.8,1.2
		c-0.3,0.3-1.6,1.2-3.8,1.2s-3.5-0.8-3.8-1.2C109.7,167.7,111,166.9,113.2,166.9z"/>
	<path class="st0" d="M35.1,143.8h20.7c1.7,3.2,5.7,5.3,10.4,5.3c6.4,0,11.3-3.8,11.3-8.7c0-4.9-5-8.7-11.3-8.7
		c-4.4,0-8.1,1.8-10,4.6H35.1c-5.6,0-10.2-4.6-10.2-10.3c0-5.6,4.6-10.2,10.2-10.2h61.7c2,0,3.7-1.7,3.7-3.7s-1.6-3.7-3.7-3.7H35.1
		c-9.8,0-17.7,7.9-17.7,17.7C17.4,135.9,25.4,143.8,35.1,143.8z M66.2,141.7c-2.2,0-3.5-0.8-3.8-1.2c0.3-0.4,1.6-1.3,3.8-1.2
		c2.2,0,3.5,0.8,3.8,1.2C69.7,140.8,68.4,141.7,66.2,141.7z"/>
	<path class="st0" d="M142.9,80.6H82.8c-2,0-3.7,1.7-3.7,3.7s1.6,3.7,3.7,3.7h60.1c5.6,0,10.2,4.6,10.2,10.2s-4.6,10.2-10.2,10.2
		h-19.4c-1.8-3-5.7-5.1-10.3-5.1c-6.3,0-11.3,3.8-11.3,8.7c0,4.9,5,8.7,11.3,8.7c4.6,0,8.4-2,10.2-4.9h19.5
		c9.7,0,17.6-7.9,17.7-17.5C160.6,88.5,152.6,80.6,142.9,80.6z M113.2,110.8c2.2,0,3.5,0.8,3.8,1.2c-0.3,0.3-1.6,1.2-3.8,1.2
		s-3.5-0.8-3.8-1.2C109.7,111.6,111,110.8,113.2,110.8z"/>
	<path class="st0" d="M35.1,87.9h20.6c1.6,3.3,5.7,5.5,10.5,5.5c6.4,0,11.3-3.8,11.3-8.7c0-4.9-5-8.7-11.3-8.7
		c-4.2,0-7.8,1.7-9.8,4.3H35.1c-5.6,0-10.2-4.6-10.2-10.2v-0.3c0-5.6,4.6-10.2,10.2-10.2h37.3c2,0,3.7-1.7,3.7-3.7s-1.6-3.7-3.7-3.7
		H35.1c-9.8,0-17.7,8-17.7,17.7v0.3C17.4,80,25.4,87.9,35.1,87.9z M66.2,85.9c-2.2,0-3.5-0.8-3.8-1.2c0.3-0.4,1.6-1.2,3.8-1.2
		s3.5,0.8,3.8,1.2C69.7,85,68.4,85.9,66.2,85.9z"/>
</g>
</svg>
